<?xml version="1.0" encoding="UTF-8"?>
<svg width="60" height="60" viewBox="0 0 60 60" fill="none" xmlns="http://www.w3.org/2000/svg">
    <path d="M30 5C16.2 5 5 16.2 5 30C5 43.8 16.2 55 30 55C43.8 55 55 43.8 55 30C55 16.2 43.8 5 30 5ZM33 45H27V39H33V45ZM36.4 26.5L34.3 28.7C32.6 30.4 31.5 32 31.5 35H28.5V34C28.5 31.8 29.6 29.8 31.3 28.1L34.2 25.2C35.1 24.4 35.6 23.2 35.6 22C35.6 19.2 33.3 17 30.5 17C27.7 17 25.4 19.2 25.4 22H22.4C22.4 17.6 26 14 30.4 14C34.8 14 38.4 17.6 38.4 22C38.4 23.9 37.6 25.7 36.4 26.5Z" fill="#E74C3C"/>
</svg> 